<svg width="19" height="20" viewBox="0 0 19 20" fill="none" xmlns="http://www.w3.org/2000/svg">
<path d="M1.66675 1.66699H2.75522C2.96023 1.66699 3.06274 1.66699 3.14523 1.70469C3.21793 1.73792 3.27954 1.79135 3.32271 1.85861C3.37169 1.93495 3.38619 2.03643 3.41518 2.23938L3.80961 5.00033M3.80961 5.00033L4.68618 11.4432C4.79742 12.2608 4.85304 12.6696 5.0485 12.9773C5.22073 13.2484 5.46765 13.464 5.75954 13.5981C6.0908 13.7503 6.50337 13.7503 7.3285 13.7503H14.4601C15.2455 13.7503 15.6383 13.7503 15.9592 13.609C16.2422 13.4844 16.485 13.2835 16.6603 13.0288C16.8592 12.74 16.9327 12.3542 17.0796 11.5826L18.1827 5.79173C18.2344 5.52016 18.2603 5.38438 18.2228 5.27824C18.1899 5.18513 18.125 5.10673 18.0397 5.05701C17.9425 5.00033 17.8042 5.00033 17.5278 5.00033H3.80961ZM8.33341 17.5003C8.33341 17.9606 7.96032 18.3337 7.50008 18.3337C7.03984 18.3337 6.66675 17.9606 6.66675 17.5003C6.66675 17.0401 7.03984 16.667 7.50008 16.667C7.96032 16.667 8.33341 17.0401 8.33341 17.5003ZM15.0001 17.5003C15.0001 17.9606 14.627 18.3337 14.1667 18.3337C13.7065 18.3337 13.3334 17.9606 13.3334 17.5003C13.3334 17.0401 13.7065 16.667 14.1667 16.667C14.627 16.667 15.0001 17.0401 15.0001 17.5003Z" stroke="#9395B8" stroke-width="1.5" stroke-linecap="round" stroke-linejoin="round"/>
</svg>
