<svg width="18" height="20" viewBox="0 0 18 20" fill="none" xmlns="http://www.w3.org/2000/svg">
<path fill-rule="evenodd" clip-rule="evenodd" d="M4.93412 2.60079C6.01245 1.52246 7.47499 0.916656 8.99998 0.916656C10.525 0.916656 11.9875 1.52246 13.0658 2.60079C14.1442 3.67913 14.75 5.14166 14.75 6.66666C14.75 9.10868 15.3639 10.7334 16.012 11.7749L16.0211 11.7894C16.3196 12.2691 16.5543 12.6464 16.7123 12.9205C16.7914 13.0578 16.8623 13.1879 16.9142 13.3023C16.9401 13.3594 16.9684 13.4279 16.9904 13.5015C17.0087 13.563 17.0423 13.6907 17.0297 13.8451C17.0207 13.9553 16.9987 14.1358 16.8956 14.3214C16.7925 14.507 16.6508 14.6211 16.562 14.687C16.3704 14.8292 16.1481 14.8621 16.0699 14.8736L16.0677 14.874C15.9494 14.8915 15.8135 14.9004 15.6738 14.9058C15.3961 14.9167 15.0106 14.9167 14.528 14.9167H3.47195C2.98936 14.9167 2.6039 14.9167 2.32617 14.9058C2.18645 14.9004 2.05061 14.8915 1.93227 14.874L1.93007 14.8736C1.85184 14.8621 1.62961 14.8292 1.43797 14.687C1.34917 14.6211 1.20751 14.507 1.1044 14.3214C1.0013 14.1358 0.979262 13.9553 0.970249 13.8451C0.957623 13.6907 0.99128 13.563 1.00961 13.5015C1.03153 13.4279 1.05982 13.3594 1.08576 13.3023C1.1377 13.1879 1.20853 13.0578 1.28768 12.9205C1.44566 12.6464 1.68046 12.269 1.97899 11.7893L1.98792 11.7749C2.63602 10.7334 3.24998 9.10868 3.24998 6.66666C3.24998 5.14166 3.85578 3.67913 4.93412 2.60079ZM6.23282 17.0037C6.50692 16.6931 6.98088 16.6636 7.29143 16.9377C7.74728 17.34 8.34431 17.5833 8.99998 17.5833C9.65566 17.5833 10.2527 17.34 10.7085 16.9377C11.0191 16.6636 11.493 16.6931 11.7671 17.0037C12.0412 17.3142 12.0117 17.7882 11.7011 18.0623C10.9818 18.6972 10.0351 19.0833 8.99998 19.0833C7.96492 19.0833 7.0182 18.6972 6.29883 18.0623C5.98828 17.7882 5.95873 17.3142 6.23282 17.0037Z" fill="#CCCFDA"/>
</svg>
