<svg width="16" height="20" viewBox="0 0 16 20" fill="none" xmlns="http://www.w3.org/2000/svg">
<path d="M3.75033 9.53736V11.8522M3.75033 9.53736V3.98181C3.75033 3.21474 4.38459 2.59292 5.16699 2.59292C5.9494 2.59292 6.58366 3.21474 6.58366 3.98181M3.75033 9.53736C3.75033 8.7703 3.11606 8.14847 2.33366 8.14847C1.55126 8.14847 0.916992 8.7703 0.916992 9.53736V11.3892C0.916992 15.2245 4.08831 18.3337 8.00033 18.3337C11.9123 18.3337 15.0837 15.2245 15.0837 11.3892V6.75959C15.0837 5.99252 14.4494 5.3707 13.667 5.3707C12.8846 5.3707 12.2503 5.99252 12.2503 6.75959M6.58366 3.98181V9.0744M6.58366 3.98181V3.05588C6.58366 2.28882 7.21792 1.66699 8.00033 1.66699C8.78273 1.66699 9.41699 2.28882 9.41699 3.05588V3.98181M9.41699 3.98181V9.0744M9.41699 3.98181C9.41699 3.21474 10.0513 2.59292 10.8337 2.59292C11.6161 2.59292 12.2503 3.21475 12.2503 3.98181V6.75959M12.2503 6.75959V9.0744" stroke="#9395B8" stroke-width="1.5" stroke-linecap="round" stroke-linejoin="round"/>
</svg>
